<?xml version="1.0" encoding="UTF-8"?><svg id="Layer_6" xmlns="http://www.w3.org/2000/svg" width="2.7in" height="2.22in" viewBox="0 0 194.17 160.1"><defs><style>.cls-1{letter-spacing:0em;}.cls-2{letter-spacing:0em;}.cls-3{letter-spacing:-.01em;}.cls-4{font-family:HashiCorpSans-Semibold, 'HashiCorp Sans';font-size:39.99px;font-weight:600;}.cls-4,.cls-5{fill:#000;}.cls-5{stroke-width:0px;}</style></defs><text class="cls-4" transform="translate(0 151.5)"><tspan class="cls-1" x="0" y="0">Hashi</tspan><tspan class="cls-3" x="103.96" y="0">C</tspan><tspan class="cls-2" x="132.43" y="0">orp</tspan></text><polygon class="cls-5" points="89.77 0 48.09 24.04 48.09 24.06 48.09 81.78 63.75 90.82 63.75 33.08 89.77 18.06 89.77 0"/><polygon class="cls-5" points="106.4 0 106.4 45.98 89.77 45.98 89.77 28.82 74.11 37.86 74.11 96.78 89.77 105.84 89.77 59.99 106.4 59.99 106.4 77.03 122.06 68 122.06 9.04 106.4 0"/><polygon class="cls-5" points="106.4 105.86 148.07 81.82 148.07 81.79 148.07 24.08 132.41 15.04 132.41 72.78 106.4 87.8 106.4 105.86"/></svg>